PathFileType	4	(X/Y/Z)	/Users/niels/Desktop/University/Third Semester/Perception and Action/Exam/Gymnastics Motion Tracking/Code for Gym Tracking/Analyzed Data/Webcam_Backflip/id8_5_baseline_Sports2D/id8_5_baseline_Sports2D_px_person00.trc
DataRate	CameraRate	NumFrames	NumMarkers	Units	OrigDataRate	OrigDataStartFrame	OrigNumFrames
29.8125	29.8125	8	22	m	29.8125	120	160
Frame#	Time	Hip			RHip			RKnee			RAnkle			RBigToe			RSmallToe			RHeel			LHip			LKnee			LAnkle			LBigToe			LSmallToe			LHeel			Neck			Head			Nose			RShoulder			RElbow			RWrist			LShoulder			LElbow			LWrist		
		X1	Y1	Z1	X2	Y2	Z2	X3	Y3	Z3	X4	Y4	Z4	X5	Y5	Z5	X6	Y6	Z6	X7	Y7	Z7	X8	Y8	Z8	X9	Y9	Z9	X10	Y10	Z10	X11	Y11	Z11	X12	Y12	Z12	X13	Y13	Z13	X14	Y14	Z14	X15	Y15	Z15	X16	Y16	Z16	X17	Y17	Z17	X18	Y18	Z18	X19	Y19	Z19	X20	Y20	Z20	X21	Y21	Z21	X22	Y22	Z22
120	4.025157232704402	0.9395873832007268	-0.569477938667784	0.0	0.9317608567326003	-0.5678492346157854	0.0	0.9340449004893215	-0.6637966736651586	0.0	0.9242400404992102	-0.7596566291282744	0.0	0.9588977293659926	-0.7790166829596729	0.0	0.9457573885185875	-0.780325212182246	0.0	0.9170858813717159	-0.7740642872328032	0.0	0.9481262894271013	-0.567650200630332	0.0	0.9458231052564029	-0.6639448947225229	0.0	0.938506130885434	-0.7549370022729895	0.0	0.9692345157796393	-0.7750309897954862	0.0	0.9686914599291737	-0.7713267922110276	0.0	0.9341978253579616	-0.7677489746075215	0.0	0.9463353351495888	-0.43738020902461705	0.0	0.9541398392885121	-0.37398870033551596	0.0	0.9696547326777419	-0.40572791242321593	0.0	0.931145285104109	-0.4565039578485853	0.0	0.9235670735034249	-0.521307981231309	0.0	0.937744716608645	-0.5789611496574104	0.0	0.9536237074638104	-0.4576402142315749	0.0	0.9532180644451788	-0.5141710878321846	0.0	0.9710030644515686	-0.5647054695514834	0.0
121	4.058700209643606	0.9395960449774203	-0.5773514558006201	0.0	0.9323084112850643	-0.5759952304090823	0.0	0.9328100568266658	-0.6705606680684009	0.0	0.9265363877090055	-0.7667069287358685	0.0	0.9617760003899535	-0.7850134050740732	0.0	0.9494683470939909	-0.7865102816730116	0.0	0.9199209413948389	-0.7816290105207842	0.0	0.9478153342805489	-0.575683653392266	0.0	0.9443631115490236	-0.6704754184837244	0.0	0.938071492896412	-0.761083309068983	0.0	0.9696731388118429	-0.7806300633565593	0.0	0.9691038579005892	-0.7768726438118225	0.0	0.9340842399699013	-0.7744434061458481	0.0	0.946848802050469	-0.44421229593103295	0.0	0.9545598100092975	-0.38040698453863686	0.0	0.9702579560095617	-0.4128630789765504	0.0	0.9316658727871332	-0.4636866926831712	0.0	0.9245177539441534	-0.5281783801911606	0.0	0.9399779314321323	-0.5862935460382754	0.0	0.9540058284736062	-0.4647172609886701	0.0	0.9563388608993434	-0.5209734191300055	0.0	0.9801966466812416	-0.5691967909053322	0.0
122	4.092243186582809	0.9395654653560983	-0.5856435928877195	0.0	0.9328355262223078	-0.5845530463083761	0.0	0.9321095489973931	-0.6775565426645727	0.0	0.9274035233340125	-0.7736001897027034	0.0	0.9629744069262102	-0.7910224372384708	0.0	0.9519829297492023	-0.7925491512448347	0.0	0.9209780591540269	-0.7888783786246271	0.0	0.9474308151649724	-0.5841146683470406	0.0	0.9436255278150986	-0.6771495367660797	0.0	0.9375967665019153	-0.7674071959698704	0.0	0.9701951817018902	-0.7864123556800752	0.0	0.9695316061628793	-0.7825310015372974	0.0	0.9336943910910418	-0.7813202658281668	0.0	0.9470988958395544	-0.4515536096014611	0.0	0.9547773611576399	-0.38737577012851254	0.0	0.9709985324811569	-0.4206189079136851	0.0	0.9321057151783839	-0.4711551949135131	0.0	0.9256302527703824	-0.5353577581263602	0.0	0.9421005758461394	-0.5938841764128899	0.0	0.9540792349144553	-0.47210079891715273	0.0	0.9587431473522184	-0.5284237862377508	0.0	0.9888880741569852	-0.5745113155034784	0.0
123	4.125786163522012	0.9396510479445972	-0.5932217715206195	0.0	0.933407040233947	-0.5922911214482969	0.0	0.9319405386363924	-0.6839421637919548	0.0	0.9274456431627319	-0.7797989016976604	0.0	0.963251494919678	-0.7965161097422077	0.0	0.9537232577937005	-0.7979894648359543	0.0	0.9209370387280255	-0.7952879786342418	0.0	0.947196537390999	-0.5917056937432973	0.0	0.9437319937408988	-0.6831933435632855	0.0	0.9372097163674782	-0.7731610009655759	0.0	0.9707053740446995	-0.791759742224111	0.0	0.9699286899402796	-0.7877028958572886	0.0	0.9331353951705741	-0.7875389812792158	0.0	0.9471688007667275	-0.45845410524769403	0.0	0.9548087173739863	-0.39403046861659674	0.0	0.9718051621154097	-0.42790690431464695	0.0	0.9323813326990762	-0.47800787743200446	0.0	0.9269120993545452	-0.542043524071412	0.0	0.9440998634838	-0.6007523020187867	0.0	0.9539519707577453	-0.4788894704094432	0.0	0.9602247006646342	-0.5357666882483122	0.0	0.9958972190518713	-0.5800819304281323	0.0
124	4.159329140461216	0.9399544072588325	-0.599149746794411	0.0	0.9340607991173969	-0.5982734497054343	0.0	0.9321846003870333	-0.6890218946502012	0.0	0.9271386117963438	-0.7847182937527524	0.0	0.963153832133943	-0.8009369242957028	0.0	0.9548132808667974	-0.8023350378690243	0.0	0.9204125136121432	-0.8002718900310449	0.0	0.9472920765979707	-0.5975206780299327	0.0	0.9447882125358834	-0.6879211728418887	0.0	0.9370432574874721	-0.7775806899034794	0.0	0.9711454760794219	-0.7960130883092744	0.0	0.9702593340338171	-0.7917522333690471	0.0	0.9326028972258196	-0.7922748102177422	0.0	0.9471421880126357	-0.46402175119858424	0.0	0.9547460108549491	-0.399529220674005	0.0	0.9725828410045853	-0.43373078848361574	0.0	0.9324854939555803	-0.4834869316297316	0.0	0.9282488119524784	-0.5474697026033376	0.0	0.9458628647713208	-0.6060471251349944	0.0	0.9537125824808654	-0.48431720201856215	0.0	0.960775039933526	-0.5422030590770797	0.0	1.0002988776822224	-0.5852440606831837	0.0
125	4.192872117400419	0.9405478350440318	-0.6027789645288968	0.0	0.9348104346836927	-0.6019377422963623	0.0	0.9326666821763525	-0.692278452080936	0.0	0.9267557359517608	-0.7878397487899104	0.0	0.962923150469855	-0.8038015040704307	0.0	0.9551297445108294	-0.8051391681507996	0.0	0.9198094559669936	-0.8032882530626263	0.0	0.9478539508472447	-0.6010149112824461	0.0	0.946859940138273	-0.6907832740944099	0.0	0.9371503398917879	-0.7799620605025592	0.0	0.9714432518166944	-0.7985523086607997	0.0	0.9704501186581187	-0.7940856909490324	0.0	0.9323068729591034	-0.7947916191320136	0.0	0.9471028038782991	-0.46754118428578473	0.0	0.9547631440613941	-0.4031372621822837	0.0	0.9732296162816143	-0.4374071361072168	0.0	0.9325028115986904	-0.487020868965137	0.0	0.9294546330627409	-0.550979230019477	0.0	0.9472030752884878	-0.6092276341176149	0.0	0.9534643940264296	-0.48780794574052666	0.0	0.9605768476152038	-0.5469223773700176	0.0	1.001616932336792	-0.589393922192849	0.0
126	4.226415094339622	0.9414792564491117	-0.6037734359132354	0.0	0.9356395723459315	-0.6030308230173093	0.0	0.9332383485346593	-0.6934317404092248	0.0	0.9264235507625551	-0.7888377437203018	0.0	0.9626074639622394	-0.8048048814902056	0.0	0.9545438231994993	-0.8061185054038001	0.0	0.9193209608985472	-0.8039953993194984	0.0	0.9489363522156586	-0.6019405385042084	0.0	0.9499302678511751	-0.691446611946922	0.0	0.9375068428814464	-0.7798512760673018	0.0	0.9715386393587413	-0.7989878197285262	0.0	0.9704505346078225	-0.7943358268979521	0.0	0.9323815677328731	-0.7946035657242168	0.0	0.9471215696940023	-0.468598955916085	0.0	0.9550256480871868	-0.404373640635594	0.0	0.973663726114752	-0.43862442141544167	0.0	0.9325354849397458	-0.4882740399458196	0.0	0.9303832228951643	-0.5521696349103927	0.0	0.9479338165068658	-0.6100996527501551	0.0	0.9533029232748664	-0.4890196755319424	0.0	0.9598474403153798	-0.5492602102384718	0.0	0.9998029491279244	-0.5920760847545016	0.0
127	4.259958071278826	0.94276809771624	-0.6021066145277914	0.0	0.9365090713895796	-0.6015344741934389	0.0	0.9338014178314619	-0.6924776522599851	0.0	0.9261908845392293	-0.7876815720049786	0.0	0.9622161177657789	-0.803896230819064	0.0	0.9531312211435141	-0.8052366203825796	0.0	0.919006235719765	-0.8023920001935797	0.0	0.9505067992985854	-0.6002877095982694	0.0	0.9538828993479903	-0.6898798484970834	0.0	0.9380727462059729	-0.7772357086816718	0.0	0.9714922766097057	-0.7973195227956666	0.0	0.9703312894917958	-0.792513771776674	0.0	0.9328760462040181	-0.7916780996359782	0.0	0.9472408970646412	-0.46715656545300577	0.0	0.9555930293132133	-0.403134074118009	0.0	0.9738858189960915	-0.4373696521894765	0.0	0.932627163781434	-0.4871682879508257	0.0	0.9309858647774937	-0.5509818971920438	0.0	0.9479376818727221	-0.6087434540624539	0.0	0.9532724673997922	-0.4878879660513552	0.0	0.9587127133040269	-0.5488764077954753	0.0	0.9951716595822789	-0.5930100768672185	0.0
